<svg id="SvgjsSvg1000" xmlns="http://www.w3.org/2000/svg" version="1.1" xmlns:xlink="http://www.w3.org/1999/xlink" xmlns:svgjs="http://svgjs.com/svgjs" width="79" height="139"><defs id="SvgjsDefs1001"></defs><path id="SvgjsPath1007" d="M242.746 2116.93L241.69500000000002 2117.99L238.85000000000002 2115.14C238.27300000000002 2114.79 237.71400000000003 2114.4 237.175 2113.99C235.853 2115.99 234.14200000000002 2117.74 232.151 2119.1099999999997C230.73700000000002 2120.0799999999995 229.21200000000002 2120.8399999999997 227.614 2121.3799999999997L225.669 2123.3299999999995L224.491 2122.1499999999996C223.55 2122.2899999999995 222.59400000000002 2122.3699999999994 221.62900000000002 2122.3699999999994C221.26700000000002 2122.3699999999994 220.907 2122.359999999999 220.54800000000003 2122.3399999999992L223.60400000000004 2125.3899999999994L220.32700000000006 2128.6699999999996L217.04900000000006 2125.3899999999994L220.13300000000007 2122.3099999999995C218.94200000000006 2122.2099999999996 217.77100000000007 2121.9999999999995 216.63300000000007 2121.6799999999994L214.98400000000007 2123.3299999999995L211.70700000000008 2120.0499999999993L212.0550000000001 2119.6999999999994C211.2100000000001 2119.189999999999 210.40400000000008 2118.6199999999994 209.6460000000001 2117.9799999999996L209.6420000000001 2117.99L209.6010000000001 2117.9399999999996C208.9160000000001 2117.3599999999997 208.26900000000012 2116.7299999999996 207.66900000000012 2116.0499999999997C205.92600000000013 2116.9599999999996 204.02900000000014 2117.5299999999997 202.06000000000012 2117.7499999999995L223.4570000000001 2178.7099999999996C224.0650000000001 2180.4399999999996 224.8670000000001 2181.3099999999995 225.6690000000001 2181.3099999999995C226.4710000000001 2181.3099999999995 227.2720000000001 2180.4399999999996 227.88100000000009 2178.7099999999996L249.24800000000008 2117.8299999999995C249.01100000000008 2117.8399999999997 248.77300000000008 2117.8499999999995 248.53400000000008 2117.8499999999995C246.54000000000008 2117.8499999999995 244.59100000000007 2117.5399999999995 242.74600000000007 2116.9299999999994ZM225.669 2169.03L223.196 2161.98L225.669 2159.51L228.14200000000002 2161.98ZM236.353 2116.77L239.631 2120.05L236.353 2123.3300000000004L233.07600000000002 2120.05ZM222.391 2141.42L225.66899999999998 2138.14L228.94599999999997 2141.42L225.66899999999998 2144.7000000000003ZM231.011 2122.11L234.28799999999998 2125.3900000000003L231.011 2128.6700000000005L227.734 2125.3900000000003ZM228.946 2152.1L225.669 2155.38L222.39100000000002 2152.1L225.669 2148.83ZM225.669 2127.46L228.946 2130.73L225.669 2134.01L222.39100000000002 2130.73ZM223.604 2136.08L220.32700000000003 2139.35L217.04900000000004 2136.08L220.32700000000003 2132.7999999999997ZM227.734 2136.08L231.011 2132.7999999999997L234.28799999999998 2136.08L231.011 2139.35ZM212.092 2130.35L214.984 2127.46L218.262 2130.73L214.984 2134.01L212.50900000000001 2131.5400000000004ZM238.829 2131.54L236.353 2134.0099999999998L233.07600000000002 2130.7299999999996L236.353 2127.4599999999996L239.245 2130.3499999999995ZM218.288 2148L217.644 2146.17L220.327 2143.48L223.60399999999998 2146.76L220.327 2150.0400000000004ZM233.05 2148L231.01100000000002 2150.04L227.73400000000004 2146.7599999999998L231.01100000000002 2143.4799999999996L233.69400000000002 2146.1699999999996ZM209.316 2122.44L209.642 2122.11L212.92 2125.3900000000003L211.01899999999998 2127.2900000000004ZM240.318 2127.29L238.418 2125.39L241.695 2122.1099999999997L242.021 2122.4399999999996ZM214.868 2138.26L214.984 2138.1400000000003L218.262 2141.4200000000005L216.571 2143.1100000000006ZM234.767 2143.11L233.076 2141.42L236.35299999999998 2138.14L236.46999999999997 2138.2599999999998ZM220.521 2154.36L223.60399999999998 2157.4500000000003L222.123 2158.9300000000003ZM229.215 2158.93L227.734 2157.45L230.817 2154.3599999999997ZM259.734 2087.01C260.539 2084.03 260.945 2080.94 260.945 2077.82C260.945 2068.4100000000003 257.28 2059.56 250.623 2052.9C243.96699999999998 2046.24 235.117 2042.5800000000002 225.70399999999998 2042.5800000000002C216.29099999999997 2042.5800000000002 207.44099999999997 2046.2400000000002 200.784 2052.9C194.128 2059.56 190.463 2068.4100000000003 190.463 2077.82C190.463 2082.02 191.186 2086.1000000000004 192.617 2089.98C188.677 2092.53 186.19199999999998 2096.95 186.19199999999998 2101.78C186.19199999999998 2109.53 192.49899999999997 2115.84 200.25099999999998 2115.84C203.11999999999998 2115.84 205.83999999999997 2114.9900000000002 208.12999999999997 2113.44C211.19899999999996 2117.7000000000003 216.19799999999998 2120.36 221.61399999999998 2120.36C224.98499999999999 2120.36 228.23099999999997 2119.36 231.00099999999998 2117.4500000000003C233.26399999999998 2115.9 235.08799999999997 2113.8300000000004 236.34099999999998 2111.42C236.56499999999997 2111.35 236.78699999999998 2111.28 237.009 2111.21C240.083 2114.18 244.16699999999997 2115.84 248.51999999999998 2115.84C257.671 2115.84 265.116 2108.4 265.116 2099.25C265.116 2094.56 263.138 2090.13 259.734 2087.01ZM248.52 2109.55C245.321 2109.55 242.357 2108.11 240.38600000000002 2105.5800000000004C239.51800000000003 2104.4700000000003 238.01600000000002 2104.07 236.711 2104.6100000000006C235.595 2105.0700000000006 234.437 2105.4600000000005 233.269 2105.7700000000004C232.31900000000002 2106.0300000000007 231.544 2106.7200000000003 231.175 2107.6300000000006C229.59 2111.5500000000006 225.83800000000002 2114.0800000000004 221.614 2114.0800000000004C217.29 2114.0800000000004 213.395 2111.3500000000004 211.92000000000002 2107.28C211.52700000000002 2106.2000000000003 210.572 2105.42 209.43300000000002 2105.25C209.27700000000002 2105.22 209.12000000000003 2105.21 208.96500000000003 2105.21C207.98900000000003 2105.21 207.05600000000004 2105.67 206.45700000000002 2106.46C204.97100000000003 2108.43 202.71000000000004 2109.55 200.25100000000003 2109.55C195.96600000000004 2109.55 192.47900000000004 2106.07 192.47900000000004 2101.78C192.47900000000004 2098.48 194.57300000000004 2095.53 197.68800000000005 2094.4500000000003C198.52800000000005 2094.15 199.20500000000004 2093.5200000000004 199.55000000000004 2092.69C199.89400000000003 2091.87 199.87400000000005 2090.94 199.49500000000003 2090.14C197.67300000000003 2086.27 196.75000000000003 2082.1299999999997 196.75000000000003 2077.8199999999997C196.75000000000003 2070.0899999999997 199.76100000000002 2062.8099999999995 205.23000000000002 2057.35C210.699 2051.88 217.97000000000003 2048.87 225.704 2048.87C233.43800000000002 2048.87 240.709 2051.88 246.178 2057.35C251.646 2062.81 254.658 2070.0899999999997 254.658 2077.8199999999997C254.658 2081.0099999999998 254.14399999999998 2084.14 253.131 2087.1299999999997C252.678 2088.4599999999996 253.169 2089.93 254.332 2090.7299999999996C257.14799999999997 2092.6599999999994 258.829 2095.8399999999997 258.829 2099.2499999999995C258.829 2104.9299999999994 254.204 2109.5499999999997 248.52 2109.5499999999997Z " fill="#e84d37" transform="matrix(1,0,0,1,-186,-2043)"></path></svg>