<svg id="SvgjsSvg1000" xmlns="http://www.w3.org/2000/svg" version="1.1" xmlns:xlink="http://www.w3.org/1999/xlink" xmlns:svgjs="http://svgjs.com/svgjs" width="153" height="63"><defs id="SvgjsDefs1001"></defs><path id="SvgjsPath1007" d="M74.3316 51.0559C74.09429999999999 50.8782 73.9067 50.7385 73.66059999999999 50.7385C73.25919999999999 50.7385 73.10199999999999 51.077600000000004 72.99859999999998 51.3012C72.94569999999999 51.4153 72.87439999999998 51.5696 72.75439999999998 51.7738C72.15759999999997 52.8498 70.22209999999997 53.3957 66.99939999999998 53.3957C63.23279999999998 53.3957 58.22219999999998 52.638099999999994 53.81879999999998 51.8957C48.51989999999998 50.9934 42.47649999999998 50.0344 37.51309999999998 49.6887C38.41889999999998 45.721999999999994 39.08159999999998 40.592 39.53759999999998 34.0051C39.53759999999998 33.4114 38.63429999999998 33.277699999999996 38.31729999999998 33.277699999999996C37.918399999999984 33.277699999999996 36.61029999999998 33.4426 36.53219999999998 35.56569999999999L36.39989999999998 38.113699999999994C35.93399999999998 40.62729999999999 34.53319999999998 44.8745 30.384299999999982 45.0774C30.290899999999983 45.0824 30.199199999999983 45.084199999999996 30.10729999999998 45.084199999999996C30.106799999999982 45.084199999999996 30.106799999999982 45.084199999999996 30.106799999999982 45.084199999999996C28.47939999999998 45.0832 27.106499999999983 44.464099999999995 26.025399999999983 43.24249999999999C24.059099999999983 41.01979999999999 23.230899999999984 36.87429999999999 23.809999999999985 32.154399999999995C24.015199999999986 30.515999999999995 24.368099999999984 28.943699999999996 24.888099999999984 27.360699999999994C31.510799999999982 27.208299999999994 37.82419999999998 24.201499999999996 39.359799999999986 20.430899999999994C39.951599999999985 18.988499999999995 39.88089999999998 17.549199999999995 39.16509999999999 16.481699999999993C38.26549999999999 15.141899999999993 36.44769999999999 14.546199999999994 34.21479999999999 14.846099999999993C29.59079999999999 15.442799999999993 25.000499999999988 19.325399999999995 22.42679999999999 24.785499999999992C19.51599999999999 23.962199999999992 17.01079999999999 21.48849999999999 17.64639999999999 18.13989999999999C18.56389999999999 13.23479999999999 25.07949999999999 11.63219999999999 27.22169999999999 11.63219999999999C27.63369999999999 11.63219999999999 27.803699999999992 11.68579999999999 27.84809999999999 11.70249999999999C28.13469999999999 11.81189999999999 28.464799999999993 11.87249999999999 28.777399999999993 11.87249999999999C29.412499999999994 11.87249999999999 29.847199999999994 11.62619999999999 29.940399999999993 11.21319999999999C30.102999999999994 10.492499999999989 29.122999999999994 10.02669999999999 28.745599999999992 9.84701999999999C28.488799999999994 9.73172999999999 28.112199999999994 9.67502999999999 27.59379999999999 9.67502999999999C24.674199999999992 9.67502999999999 16.25089999999999 11.71309999999999 14.93849999999999 18.27659999999999C14.543399999999991 20.25119999999999 14.851999999999991 22.008099999999992 15.855899999999991 23.49839999999999C16.98869999999999 25.17989999999999 19.03309999999999 26.45539999999999 21.521499999999993 27.04719999999999C20.925299999999993 28.70729999999999 20.514099999999992 30.55599999999999 20.297299999999993 32.55209999999999C19.757699999999993 37.52169999999999 20.834999999999994 41.91729999999999 23.253399999999992 44.612599999999986C24.909699999999994 46.45809999999999 27.125399999999992 47.433799999999984 29.661499999999993 47.433799999999984L29.962799999999994 47.428899999999985C32.2407 47.32159999999998 34.224 46.42029999999998 35.781699999999994 44.80319999999998C35.556999999999995 46.59899999999998 35.28569999999999 48.17989999999998 34.959399999999995 49.591999999999985C34.597199999999994 49.584299999999985 34.242599999999996 49.58039999999998 33.8955 49.58039999999998C27.9649 49.58039999999998 24.650399999999998 50.807799999999986 23.467299999999998 53.436799999999984C22.7856 54.895699999999984 22.8847 56.44549999999998 23.7475 57.80119999999998C24.8163 59.48079999999998 26.8647 60.56579999999998 28.9662 60.56579999999998C29.2896 60.56579999999998 29.613300000000002 60.53939999999998 29.934 60.48659999999998C33.1552 59.910499999999985 35.400800000000004 57.14189999999998 36.9824 51.785499999999985C41.3457 51.99449999999999 46.8354 52.769899999999986 53.307 54.091199999999986C54.2817 54.29329999999999 55.265100000000004 54.50329999999999 56.246 54.712099999999985C61.5873 55.848899999999986 66.6322 56.92219999999998 70.3012 56.92219999999998C72.41149999999999 56.92219999999998 73.8736 56.557099999999984 74.767 55.809899999999985C75.6587 55.08529999999998 75.8188 54.222999999999985 75.79639999999999 53.62829999999998C75.75819999999999 52.65549999999998 75.17809999999999 51.64199999999998 74.3316 51.05589999999998ZM92.3568 31.7629L92.2074 31.5706C92.0531 31.374499999999998 91.79140000000001 31.2826 91.38430000000001 31.2826C90.51310000000001 31.2826 89.08350000000002 31.6985 88.9565 32.7942C88.8354 33.558899999999994 88.70660000000001 34.85959999999999 88.6148 36.246399999999994C87.9614 41.48069999999999 86.4115 44.37629999999999 85.5903 44.37629999999999C85.2954 44.37629999999999 85.0619 44.267799999999994 84.85679999999999 44.035599999999995C83.78859999999999 42.82359999999999 83.6742 38.817699999999995 84.5161 32.136199999999995L84.53269999999999 31.864699999999996L84.38329999999999 31.691699999999997C84.2319 31.517899999999997 83.98589999999999 31.436899999999998 83.6078 31.436899999999998C82.7261 31.436899999999998 81.2777 31.8569 81.14789999999999 32.989599999999996C80.8775 35.580299999999994 80.81389999999999 37.876099999999994 80.9584 39.816599999999994C80.3656 41.720099999999995 79.0365 44.800999999999995 76.6411 44.800999999999995C76.0238 44.800999999999995 75.4341 44.52869999999999 74.9361 44.013999999999996C73.932 42.976 73.3775 41.053 73.4506 38.874399999999994C73.6128 35.170199999999994 74.73389999999999 32.26899999999999 76.0043 32.26899999999999C76.41460000000001 32.26899999999999 76.57770000000001 32.43179999999999 76.66460000000001 32.55499999999999C77.0668 33.125299999999996 76.891 34.512899999999995 76.51110000000001 35.58339999999999L76.42620000000001 35.80989999999999C76.25040000000001 36.276599999999995 76.1342 36.58529999999999 76.33840000000001 36.88109999999999C76.42720000000001 37.00909999999999 76.63040000000001 37.23079999999999 77.2416 37.095899999999986C77.9877 36.95639999999999 79.5103 36.155599999999986 79.64200000000001 35.15759999999999C79.68410000000002 34.597799999999985 79.73380000000002 32.678099999999986 78.61370000000001 31.469099999999987C78.0463 30.857799999999987 77.2973 30.548099999999987 76.38610000000001 30.548099999999987C73.13610000000001 30.548099999999987 70.49660000000002 34.345199999999984 70.24450000000002 39.38809999999999C70.23380000000002 39.711199999999984 70.23680000000002 40.023699999999984 70.24950000000001 40.328499999999984C69.36280000000001 43.797099999999986 68.63530000000002 45.008099999999985 68.3482 45.26799999999999C68.10990000000001 44.870499999999986 67.7963 42.946499999999986 68.78070000000001 37.77769999999999L68.79540000000001 37.49939999999999L68.64590000000001 37.32649999999999C68.48380000000002 37.14099999999999 68.20160000000001 37.050099999999986 67.78080000000001 37.050099999999986C66.81500000000001 37.050099999999986 65.69000000000001 37.49149999999999 65.50240000000001 38.466199999999986C65.43990000000001 38.80889999999999 65.42040000000001 39.06469999999999 65.39980000000001 39.339199999999984L65.37540000000001 39.65459999999998C64.82270000000001 42.75419999999998 63.71140000000001 44.37629999999998 62.897900000000014 44.37629999999998C62.77580000000001 44.37629999999998 62.61470000000001 44.27369999999998 62.457400000000014 44.09589999999998C61.789600000000014 43.341099999999976 61.214300000000016 41.37129999999998 61.52780000000001 38.82849999999998C61.936900000000016 35.41239999999998 63.322800000000015 33.11749999999998 64.97700000000002 33.11749999999998C65.48290000000001 33.11749999999998 65.82180000000002 33.228699999999975 65.98380000000002 33.449399999999976C66.21440000000001 33.762099999999975 66.18600000000002 34.388999999999974 65.90760000000002 35.28739999999998L65.85780000000001 35.42209999999998C65.647 35.98959999999998 65.5199 36.33239999999998 65.7416 36.65169999999998C65.8335 36.78249999999998 66.09710000000001 37.00039999999998 66.63810000000001 36.88509999999998C67.3892 36.74449999999998 68.9077 35.85859999999998 69.0386 34.85379999999998C69.09230000000001 33.92709999999998 68.80120000000001 33.07649999999998 68.2183 32.45819999999998C67.7603 31.973999999999975 66.8931 31.396899999999977 65.3578 31.396899999999977C62.5308 31.396899999999977 58.9931 33.535399999999974 58.3379 39.59309999999998C57.2787 43.11259999999998 55.9321 44.75229999999998 55.355999999999995 44.75229999999998C54.594199999999994 44.75229999999998 53.4004 42.500299999999974 53.10339999999999 37.497299999999974C54.95159999999999 34.47409999999997 57.36379999999999 29.132999999999974 58.47059999999999 24.611599999999974C59.29479999999999 21.064899999999973 59.847199999999994 15.304899999999975 58.49499999999999 13.602799999999974C58.12779999999999 13.139899999999974 57.69959999999999 13.043199999999974 57.40469999999999 13.043199999999974C53.45739999999999 13.043199999999974 50.27729999999999 25.196599999999975 49.73529999999999 33.91159999999998C49.65519999999999 35.29709999999998 49.67469999999999 36.65449999999998 49.792999999999985 37.94849999999998C48.909199999999984 42.13409999999998 47.24359999999999 44.80099999999998 46.477499999999985 44.80099999999998C45.761099999999985 44.80099999999998 44.63819999999998 42.66549999999998 44.355499999999985 37.92019999999998C46.115599999999986 35.03929999999998 48.411999999999985 29.95519999999998 49.467199999999984 25.647799999999982C50.252799999999986 22.26399999999998 50.777799999999985 16.767899999999983 49.485399999999984 15.139999999999983C49.129299999999986 14.692699999999983 48.71429999999999 14.598999999999982 48.428099999999986 14.598999999999982C44.654299999999985 14.598999999999982 41.616599999999984 26.18769999999998 41.10009999999998 34.49729999999998C40.75249999999998 40.50619999999998 42.40519999999999 44.51999999999998 43.92629999999998 46.13109999999998C44.58679999999998 46.83139999999998 45.30809999999998 47.20149999999998 46.010699999999986 47.20149999999998C47.852499999999985 47.20149999999998 49.51119999999999 44.70149999999998 50.58489999999998 42.09409999999998C51.547299999999986 45.218099999999986 53.180599999999984 47.22209999999998 54.86609999999998 47.22209999999998C56.148499999999984 47.22209999999998 57.52729999999998 45.984799999999986 58.74169999999998 43.78149999999998C59.47019999999998 45.84009999999998 60.89979999999998 46.90859999999998 62.13619999999998 46.90859999999998C62.18999999999998 46.90859999999998 62.24449999999998 46.90649999999998 62.30609999999998 46.90159999999998C63.48479999999998 46.798099999999984 64.61279999999998 45.88619999999998 65.56389999999998 44.29529999999998C65.94769999999997 46.43779999999998 66.77869999999997 47.710399999999986 67.86089999999997 47.710399999999986C69.17919999999997 47.710399999999986 70.28949999999998 45.865599999999986 71.09019999999997 43.93869999999998C72.09899999999996 46.03449999999998 73.92729999999997 47.328499999999984 76.00429999999997 47.328499999999984C78.06879999999997 47.328499999999984 80.04339999999998 45.855899999999984 81.54439999999997 43.23869999999998C82.46719999999996 46.28249999999998 84.13719999999996 46.77669999999998 85.12359999999997 46.77669999999998C86.10599999999997 46.77669999999998 87.06879999999997 46.06489999999998 87.93789999999997 44.727799999999974L87.90859999999996 45.005199999999974C85.43609999999997 47.81869999999997 83.54139999999997 51.05879999999998 82.27779999999997 54.63399999999997C81.22789999999998 57.56869999999997 81.25329999999997 60.69559999999997 82.34019999999997 62.239599999999975C82.76029999999997 62.835299999999975 83.31189999999997 63.15069999999997 83.93599999999996 63.15069999999997C85.78649999999996 63.15069999999997 88.58549999999997 60.61639999999997 91.51509999999996 38.71209999999997C91.97499999999997 35.53039999999997 92.31679999999996 32.05889999999997 92.31189999999997 32.05889999999997ZM165.252 54.3274C163.51000000000002 52.4719 161.024 52.2474 158.24900000000002 52.2474L158.01300000000003 52.2474C156.12000000000003 50.247299999999996 153.10000000000002 48.0929 149.03600000000003 47.847C145.54100000000003 47.6205 142.67300000000003 47.621500000000005 140.20100000000002 48.678200000000004C140.28400000000002 48.009100000000004 140.353 47.132200000000005 140.41000000000003 46.453500000000005C140.92800000000003 46.661500000000004 141.46800000000002 46.66440000000001 142.04500000000002 46.66440000000001C145.11300000000003 46.66440000000001 148.33200000000002 44.080400000000004 148.61200000000002 38.41630000000001C148.74500000000003 35.29130000000001 148.23200000000003 33.005100000000006 147.127 31.852800000000006C146.591 31.294300000000007 145.919 30.985700000000005 145.184 30.985700000000005C143.538 30.985700000000005 141.996 32.428900000000006 140.79 35.0412C140.787 34.7552 140.783 34.502300000000005 140.779 34.2717C140.771 33.7933 140.764 33.3997 140.764 32.9581C140.764 31.852800000000002 140.711 31.2269 139.627 31.2269C139.23700000000002 31.2269 138.84300000000002 31.4018 138.54600000000002 31.7063C138.25300000000001 32.0091 137.91000000000003 32.5912 137.94000000000003 33.6458C137.967 35.0296 137.97200000000004 36.431000000000004 137.95700000000002 37.927C137.45700000000002 40.172 136.55100000000002 41.937799999999996 135.61700000000002 42.6244C136.11800000000002 41.4378 136.491 40.0131 136.73000000000002 38.3705C137.14600000000002 35.348 136.68800000000002 32.7328 135.50300000000001 31.374499999999998C134.935 30.722099999999998 134.24900000000002 30.426 133.51700000000002 30.555999999999997C132.67200000000003 30.708199999999998 131.97100000000003 31.1606 131.407 31.814899999999998C131.205 31.4105 130.684 31.2562 130.156 31.473999999999997C127.575 32.4965 125.93400000000001 35.5013 125.766 39.5119C125.665 42.0013 126.33500000000001 44.127399999999994 127.652 45.499399999999994C128.535 46.41839999999999 129.624 46.9038 130.805 46.9038C132.166 46.9038 133.457 46.1369 134.461 44.7397C135.657 44.7044 136.82600000000002 43.9946 137.81300000000002 42.7347C137.69400000000002 45.227999999999994 137.50300000000001 47.674099999999996 137.247 50.031499999999994C135.235 51.516099999999994 133.536 53.657599999999995 132.055 56.5716C130.073 60.505199999999995 130.291 64.1174 131.333 65.81099999999999C131.776 66.52969999999999 132.37199999999999 66.925 133.01 66.925C136.099 66.925 138.581 58.3508 139.78799999999998 50.9096C142.15599999999998 49.4828 144.97799999999998 48.8099 148.21999999999997 48.9398C151.00599999999997 49.0424 153.38499999999996 49.8108 155.02999999999997 51.1235C151.80199999999996 52.1662 149.57999999999998 54.8128 149.14299999999997 58.2161C148.91299999999998 59.9535 149.32199999999997 61.567699999999995 150.26599999999996 62.645599999999995C151.11599999999996 63.61639999999999 152.30599999999995 64.11349999999999 153.77599999999995 64.04039999999999C155.52099999999996 63.96119999999999 157.02599999999995 63.26689999999999 158.12999999999997 62.03249999999999C159.49299999999997 60.50909999999999 160.14999999999998 58.24649999999999 159.97899999999996 55.660399999999996C159.90999999999997 54.6605 159.70699999999997 53.7337 159.37399999999997 52.893899999999995C163.28199999999995 53.53339999999999 165.63199999999998 56.879099999999994 165.42899999999997 61.651799999999994C165.152 67.46209999999999 160.07799999999997 71.0589 155.53499999999997 71.0589C152.53799999999995 71.0589 150.33899999999997 70.32549999999999 149.17799999999997 68.9388C148.12499999999997 67.682 148.12399999999997 66.1879 148.30499999999998 65.1672C148.33399999999997 65.02279999999999 148.36299999999997 64.89779999999999 148.38799999999998 64.7894C148.47699999999998 64.4056 148.54599999999996 64.1018 148.33599999999998 63.8381C148.24999999999997 63.7298 148.08899999999997 63.600899999999996 147.80499999999998 63.600899999999996C147.70899999999997 63.600899999999996 147.60099999999997 63.6147 147.41899999999998 63.65559999999999C146.18699999999998 64.01589999999999 144.93999999999997 65.2289 144.93999999999997 66.84989999999999C144.93999999999997 69.7875 148.06999999999996 72.94949999999999 154.94199999999998 72.94949999999999C162.07999999999998 72.94949999999999 167.37699999999998 68.62039999999999 167.82699999999997 61.84979999999999C168.02399999999997 58.72009999999999 167.10999999999996 56.30599999999999 165.25199999999998 54.32739999999999ZM125.589 46.7406C124.883 46.4837 124.15299999999999 44.810900000000004 124.687 38.2983C124.975 34.5912 125.094 32.4477 124.202 31.482799999999997C123.888 31.144799999999996 123.47 30.972799999999996 122.959 30.972799999999996C120.81700000000001 30.972799999999996 118.753 33.57939999999999 117.316 36.70439999999999C117.351 34.25809999999999 117.505 31.933899999999994 117.777 29.777599999999993C119.975 28.74929999999999 121.697 27.01299999999999 122.895 24.615699999999993C124.714 21.041299999999993 124.479 17.234699999999993 123.306 15.321599999999993C122.853 14.582399999999993 122.26299999999999 14.175099999999993 121.64399999999999 14.175099999999993C118.928 14.175099999999993 116.41499999999999 19.862399999999994 115.21099999999998 28.69749999999999C114.05599999999998 28.97389999999999 112.80499999999998 29.00129999999999 111.59499999999998 28.774799999999992C111.28299999999999 28.71909999999999 110.98599999999999 28.640099999999993 110.70499999999998 28.539299999999994C112.34999999999998 27.528799999999993 113.49999999999999 25.431999999999995 113.61899999999999 23.063799999999993C113.73799999999999 21.278699999999994 113.24899999999998 19.722999999999992 112.20599999999999 18.565799999999992C111.04299999999999 17.27669999999999 109.22399999999999 16.549999999999994 106.94299999999998 16.465399999999992C106.82399999999998 16.46129999999999 106.70299999999999 16.459299999999992 106.58199999999998 16.459299999999992C102.13099999999999 16.459299999999992 97.43009999999998 18.86369999999999 97.05309999999997 23.45039999999999C96.66839999999998 27.484799999999993 100.24599999999997 29.83529999999999 103.70599999999997 32.108599999999996L104.39999999999998 32.56569999999999C107.70699999999998 34.784499999999994 110.63499999999998 37.093199999999996 110.16299999999998 40.91319999999999C109.77999999999999 44.04809999999999 105.82999999999998 46.571499999999986 101.62099999999998 46.24539999999999C99.47989999999999 46.077499999999986 97.63529999999999 45.16729999999999 96.42529999999998 43.68209999999999C95.26319999999998 42.25509999999999 94.75429999999997 40.42699999999999 94.99259999999998 38.53829999999999C95.25919999999998 36.56269999999999 96.12159999999999 35.051199999999994 98.08629999999998 33.12819999999999C98.46049999999998 32.727799999999995 98.77969999999998 32.29809999999999 98.59319999999998 31.868499999999994C98.51709999999999 31.693699999999993 98.33049999999999 31.381299999999992 97.60679999999998 31.486599999999992C97.01509999999998 31.571499999999993 95.18299999999998 32.16919999999999 94.58629999999998 32.71419999999999C92.88919999999997 34.25229999999999 92.40759999999997 36.37529999999999 92.30229999999997 37.89179999999999C92.06489999999998 42.10569999999999 94.23089999999998 47.44859999999999 101.11599999999997 48.636999999999986C101.80799999999996 48.755099999999985 102.51199999999997 48.81579999999999 103.20699999999997 48.81579999999999C108.81299999999996 48.81579999999999 113.26999999999997 45.03839999999999 113.57599999999996 40.02859999999999C113.84699999999997 35.33339999999999 110.22399999999996 32.68979999999999 106.80399999999996 30.57849999999999L106.42899999999996 30.35189999999999C103.11099999999996 28.34199999999999 99.97599999999996 26.44359999999999 100.46399999999996 22.717099999999988C100.84899999999996 19.867299999999986 103.57299999999995 18.592199999999988 106.10099999999996 18.592199999999988C106.27999999999996 18.592199999999988 106.45899999999996 18.598099999999988 106.63999999999996 18.609599999999986C109.44299999999996 18.789299999999987 111.00799999999995 20.391899999999985 111.04899999999996 23.122399999999985C111.06399999999996 24.369399999999985 110.67199999999997 25.518799999999985 110.00199999999997 26.196599999999986C109.68599999999996 26.516799999999986 109.32699999999997 26.700399999999988 109.01799999999997 26.700399999999988C108.57199999999997 26.700399999999988 108.30799999999998 26.314699999999988 108.18499999999997 26.04129999999999C107.95699999999998 25.331499999999988 107.93699999999997 24.54919999999999 108.12199999999997 23.860699999999987L108.20299999999997 23.610699999999987C108.34999999999998 23.159499999999987 108.44799999999998 22.86169999999999 108.24199999999998 22.577399999999987C108.17199999999998 22.482899999999987 108.01099999999998 22.323699999999988 107.70199999999997 22.323699999999988C107.60299999999997 22.323699999999988 107.48799999999997 22.33819999999999 107.31299999999997 22.37629999999999C106.45099999999998 22.59119999999999 105.12899999999998 23.45249999999999 105.02499999999998 24.96429999999999C104.93899999999998 27.34199999999999 106.36699999999998 30.084199999999992 110.63099999999997 30.652599999999993C112.12999999999997 30.861699999999992 113.62699999999997 30.84689999999999 115.00499999999997 30.612599999999993C114.73299999999996 33.11259999999999 114.55799999999996 35.763099999999994 114.48399999999997 38.503299999999996C114.44999999999996 40.1301 114.42299999999996 41.08539999999999 114.40299999999996 41.800999999999995C114.37299999999996 42.882099999999994 114.35699999999996 43.41929999999999 114.35699999999996 44.87629999999999C114.35699999999996 46.12239999999999 114.54099999999995 46.564699999999995 115.57899999999995 46.564699999999995C116.14799999999995 46.564699999999995 117.12599999999995 46.087199999999996 117.17499999999995 44.35679999999999C118.20499999999996 37.53359999999999 121.02399999999996 33.76209999999999 121.75099999999995 33.72399999999999C121.88399999999994 33.92119999999999 121.78199999999995 34.92019999999999 121.69099999999995 35.80209999999999C121.59299999999995 36.75119999999999 121.47099999999995 37.93189999999999 121.44099999999995 39.35199999999999C121.31599999999995 45.19469999999999 122.44699999999995 48.16339999999999 124.89299999999994 48.42709999999999C126.10399999999994 48.576399999999985 126.32999999999994 48.02389999999999 126.37499999999994 47.80319999999999C126.40799999999994 47.64959999999999 126.44999999999995 47.12229999999999 125.58899999999994 46.740599999999986ZM53.1117 33.2629C53.4706 26.692800000000002 55.6855 17.795300000000005 56.7739 16.4369C57.095099999999995 17.3001 57.169799999999995 20.6877 56.1177 24.7357C55.5269 27.133200000000002 54.3378 30.474 53.1117 33.2629ZM44.3705 33.7512C44.7304 27.586399999999998 46.7857 19.296299999999995 47.8197 17.905499999999996C48.1104 18.784499999999998 48.160999999999994 21.978799999999996 47.1796 25.753299999999996C46.624900000000004 28.003099999999996 45.5185 31.122299999999996 44.3705 33.7512ZM156.289 60.9398C155.72299999999998 61.5394 155.01899999999998 61.8557 154.25099999999998 61.8557L154.14499999999998 61.853699999999996C153.332 61.83819999999999 152.69299999999998 61.556999999999995 152.24399999999997 61.016799999999996C151.65099999999998 60.303 151.44299999999998 59.194599999999994 151.66099999999997 57.891099999999994C152.06099999999998 55.28829999999999 153.94499999999996 53.396699999999996 156.61099999999996 52.88999999999999C157.20899999999997 53.85189999999999 157.54899999999995 54.97389999999999 157.62299999999996 56.23179999999999C157.74099999999996 58.19949999999999 157.25299999999996 59.91539999999999 156.28899999999996 60.93979999999999ZM142.003 44.6311C141.404 44.6311 140.95499999999998 44.50620000000001 140.60899999999998 44.240500000000004L140.67299999999997 43.2141C141.72599999999997 36.4193 143.78099999999998 33.5412 144.42099999999996 33.5412C144.45499999999996 33.5412 144.54199999999997 33.5412 144.66499999999996 33.673100000000005C145.12199999999996 34.1593 145.53399999999996 35.834300000000006 145.32199999999997 39.0737C145.07399999999998 42.5531 143.83199999999997 44.6311 142.003 44.6311ZM30.2431 57.8889C29.8788 58.0141 29.511599999999998 58.0776 29.1514 58.0776C28.1494 58.0776 27.2782 57.5931 26.821199999999997 56.781499999999994C26.333399999999997 55.91539999999999 26.418499999999998 54.816599999999994 27.051699999999997 53.77179999999999C27.593199999999996 52.89489999999999 29.317299999999996 51.857699999999994 34.405199999999994 51.773799999999994C33.363699999999994 55.21509999999999 31.963299999999993 57.270799999999994 30.243099999999995 57.88889999999999ZM87.3803 48.8538C86.2651 56.5326 85.0385 59.7601 84.47500000000001 59.986599999999996C84.4047 59.9798 84.2856 59.9115 84.1645 59.7367C83.6987 59.0666 83.55030000000001 57.4086 84.5327 54.7641C85.25630000000001 52.794399999999996 86.25720000000001 50.725 87.3803 48.8538ZM133.665 63.7191C133.56699999999998 63.7073 133.47199999999998 63.6292 133.384 63.4867C132.89899999999997 62.701499999999996 132.82299999999998 60.2415 134.60299999999998 56.6809C135.19099999999997 55.5052 135.909 54.4291 136.74599999999998 53.467C135.707 60.1029 134.248 63.434799999999996 133.665 63.7191ZM118.096 27.4222C119.071 21.1477 120.54 17.5833 121.08500000000001 17.3371C121.11900000000001 17.3471 121.24300000000001 17.4418 121.37700000000001 17.7456C121.834 18.7787 122.01800000000001 21.5052 120.561 24.4192C119.93100000000001 25.6781 119.105 26.6849 118.096 27.4222ZM130.294 33.7894C129.70700000000002 35.3879 129.52100000000002 37.3568 129.714 39.2003C129.934 41.3919 130.918 43.2258 132.3 44.1215C132.013 44.288199999999996 131.721 44.3763 131.442 44.3763C130.93 44.3763 130.51600000000002 44.0539 130.25900000000001 43.7844C129.35500000000002 42.8354 128.87400000000002 41.0639 128.973 39.0432C129.067 36.750299999999996 129.555 34.8587 130.294 33.7894ZM134.675 38.5277C134.555 40.5726 134.09900000000002 41.8695 133.667 42.658500000000004C132.496 41.9388 132.002 40.1557 131.941 38.743500000000004C131.815 36.220000000000006 132.881 34.049200000000006 133.73 33.80500000000001C133.801 33.80500000000001 133.879 33.87330000000001 133.933 33.93090000000001C134.40099999999998 34.42900000000001 134.832 36.07930000000001 134.67499999999998 38.52770000000001ZM33.5742 17.2805C33.8731 17.227 34.1543 17.1994 34.410199999999996 17.1994C34.910199999999996 17.1994 35.575599999999994 17.306 35.9068 17.8168C36.2328 18.3197 36.1875 19.1292 35.787099999999995 20.026600000000002C34.4785 22.7707 29.736799999999995 24.7523 25.782699999999995 25.065800000000003C27.737699999999997 20.896800000000002 30.806699999999996 17.807800000000004 33.5742 17.280500000000004Z " fill="#ffffff" transform="matrix(1,0,0,1,-15,-10)"></path></svg>